<svg id="Layer_1" data-name="Layer 1" xmlns="http://www.w3.org/2000/svg" viewBox="0 0 100.26 100.26"><defs><style>.cls-1{fill:#fff;}.cls-2{fill:#aa182c;}</style></defs><rect class="cls-1" width="100.26" height="100.26"/><path class="cls-2" d="M16.21,38.42c0-.9.19-.86.57-1,.82-.26,2.43,1.22,2.36,1.9-.13,1.15-.27,2.41-.4,3.67A13,13,0,0,1,22,37.25a.87.87,0,0,1,.92-.16,5.43,5.43,0,0,1,2.62,2.42h0s0,0,0,0c.49,1.06-.08,7-.13,7.82a14.36,14.36,0,0,0,.05,2.84c.13.48.26,1.55-.18,1.64A3.82,3.82,0,0,1,23,50.39c-.53-.75-.73-1.3-.6-4,.07-1.44.15-2.89.21-4.28-2.62,3.6-3.32,9.1-3.32,9.38a2.6,2.6,0,0,1-.53,1c-.15,1-2.85-2.06-2.88-2.94A86.87,86.87,0,0,1,16.21,38.42Z" transform="translate(0 -0.01)"/><path class="cls-2" d="M10.08,51.49A74.5,74.5,0,0,1,10.3,35.3c.1-.72-.26-1.95.37-2a3.87,3.87,0,0,1,3.41,2.07c.55.84.23,1.11.11,2-.26,2-.85,11.22-.78,16.38C13.42,54.64,10.26,53.33,10.08,51.49Z" transform="translate(0 -0.01)"/><path class="cls-2" d="M30,49.37c-1.12-1.75-2.11-4.62-2.65-12.25-.06-.92-.27-1.49.09-1.69.77-.42,3,1.06,3.1,2.26a38,38,0,0,0,.77,6.54c.33-1.46.78-3.21,1.35-5.12a45.58,45.58,0,0,1,2.54-6.64c.09-.21.41-.8.63-.82a19.05,19.05,0,0,1,2.39,2.71.71.71,0,0,1-.18.86A22.74,22.74,0,0,0,35.91,40c-1.41,4-2.74,9.79-2.78,10h0C33.25,50.38,30.49,50.23,30,49.37Z" transform="translate(0 -0.01)"/><path class="cls-2" d="M33.78,72.1c.07,1.13-2.9-.71-3-2.41a64.32,64.32,0,0,1,0-9.5c0-1.24.56-1.18,1.05-1.09,1,.17,2.44,1.44,2.35,2.26A75.84,75.84,0,0,0,33.78,72.1Z" transform="translate(0 -0.01)"/><path class="cls-2" d="M31.39,57.54c-1.28-1.4-.75-4,.17-4.19a2.21,2.21,0,0,1,2.65,1.59C35,57.13,32.84,59.13,31.39,57.54Z" transform="translate(0 -0.01)"/><path class="cls-2" d="M58.68,65.84c.13.49.26,1.55-.18,1.64A3.79,3.79,0,0,1,56.2,66c-.53-.75-.73-1.31-.6-4,.07-1.39.15-2.8.21-4.14-2.62,3.7-3.32,9.35-3.32,9.63A3,3,0,0,1,52,68.55h0c-.41.39-2.85-2.19-2.89-3.08a87.46,87.46,0,0,1,.33-11.39c0-.92.19-.88.58-1,.81-.27,2.43,1.25,2.35,2-.12,1.13-.24,2.35-.34,3.6a13.15,13.15,0,0,1,3.23-5.75.88.88,0,0,1,.93-.16,5.52,5.52,0,0,1,2.54,2.34l.07.12c.48,1.06-.09,7-.14,7.83A14.26,14.26,0,0,0,58.68,65.84Z" transform="translate(0 -0.01)"/><path class="cls-2" d="M59.33,41.07c-.17.94-1.78,5.1-9.69,6.1,0,0-.47,0-.28-.87,0-.25.3-1.74.51-2.52.1-.38,4.07.06,7.15-4.14-1.83-.45-5.26-.67-6.25-1-1.18-.35-1.31-3.38-1.18-4.07.5-2.78,4.93-4.87,5.57-5.15s.72-.43,1.1-.42l.13,0a.92.92,0,0,1,.7.76,1.65,1.65,0,0,0,.14.46,3.64,3.64,0,0,1,.13,2.07c-.24.34-1,.43-1.26.53A10.2,10.2,0,0,0,52.52,35c1.95.25,5.22.61,5.73,1.72A17.58,17.58,0,0,1,59.33,41.07Z" transform="translate(0 -0.01)"/><path class="cls-2" d="M59.1,32a9.14,9.14,0,0,1-.08-1.4c0-.54,1.13-.89,2.5-1.13.19-1.63.39-3.11.53-4.26.12-.91,0-1.53.64-1.59a3.4,3.4,0,0,1,3.12,1.92,17.1,17.1,0,0,1-.48,2.68q-.08.45-.15.93c1.74.05,3.51.41,3.21,1.12-.13.34-1.78,1.1-3.62,1.84-.3,2.33-.55,5-.65,7.7,0,.25.14.56.36.44a10.9,10.9,0,0,0,3.24-2.89.34.34,0,0,1,.57.15A3.79,3.79,0,0,1,68.44,39a7.81,7.81,0,0,1-3,4.18c-3.09,2.32-4.29-2-4.37-5.07a47.7,47.7,0,0,1,.12-4.77c-.37.11-.7.2-1,.26S59.26,33.15,59.1,32Z" transform="translate(0 -0.01)"/><path class="cls-2" d="M61.77,51.63c-1.28-1.41-.74-4,.18-4.2A2.23,2.23,0,0,1,64.6,49C65.43,51.21,63.22,53.21,61.77,51.63Z" transform="translate(0 -0.01)"/><path class="cls-2" d="M61.13,63.78a63.61,63.61,0,0,1-.05-9.51c0-1.23.56-1.17,1.05-1.09,1,.18,2.44,1.44,2.35,2.27a77.22,77.22,0,0,0-.32,10.73C64.23,67.32,61.27,65.47,61.13,63.78Z" transform="translate(0 -0.01)"/><path class="cls-2" d="M66.61,54.75c-.2,0-.93-.49-1.09-1.65a10.63,10.63,0,0,1-.08-1.4c0-.54,1.13-.89,2.51-1.13.18-1.63.38-3.11.53-4.26.11-.91,0-1.53.63-1.59a3.38,3.38,0,0,1,3.12,1.92,17.1,17.1,0,0,1-.48,2.68c0,.3-.1.61-.14.92,1.73.06,3.5.42,3.21,1.13-.14.33-1.79,1.1-3.63,1.83-.29,2.34-.55,5-.64,7.7,0,.26.13.57.36.45a11,11,0,0,0,3.23-2.89.34.34,0,0,1,.57.14,3.86,3.86,0,0,1,.16,1.55,7.85,7.85,0,0,1-3,4.18c-3.08,2.32-4.28-2-4.37-5.07,0-1.56,0-3.18.12-4.77C67.21,54.6,66.88,54.69,66.61,54.75Z" transform="translate(0 -0.01)"/><path class="cls-2" d="M86.36,59.63c-1,12.18-8.21,8.05-10.49,5.28-.14-.17,0-.57.23-.52,1.47.34,3.44,1.38,3.74,1.26.81-.33,1.94-.64,2.48-3.25.18-.85.34-1.77.49-2.73A6.44,6.44,0,0,1,79,61.91c-2.17,0-2.61-1.07-2.27-5,.19-2.28.7-7.16.7-7.16a5.42,5.42,0,0,1-.26-1,.41.41,0,0,1,.07-.18,1,1,0,0,1,1.22-.4c.81.31,2.11.89,2.11,1.49,0,.86-.81,9.16-.81,9.16,2.45-.72,3.44-4.49,3.84-7.56,0-1.35,0-2.66-.08-3.84s.54-1.06,1-.89,2.46,1.28,2.43,2.27C86.8,53,86.62,56.6,86.36,59.63Z" transform="translate(0 -0.01)"/><path class="cls-2" d="M47.65,41a.23.23,0,0,0-.41,0c-.57,1.07-2,4-4.11,4-1.45-.05-1.88-1.58-1.68-3.44a3.63,3.63,0,0,0,1.85.21c7.45-1,4-11.36,1.14-10C35.71,35.94,36,49.41,42.89,48.28c3.65-.6,5.41-4.81,5.37-5.44A8.2,8.2,0,0,0,47.65,41ZM45.2,34.92c1.41-.34-.33,4.3-2.94,4.44h-.33C42.61,37.23,43.87,35.24,45.2,34.92Z" transform="translate(0 -0.01)"/><path class="cls-2" d="M44.76,54.49c-.47-.17-1-.22-1,.9,0,.3,0,.68,0,1.11-.64-.59-1.62-1.31-2.34-1.08-7.2,2.26-7.9,15.34-1.46,14.36a5,5,0,0,0,2.94-1.69c-.1,1-.2,1.8-.28,2.29-.44,2.63-1.88,3.45-2.48,3.25a35.64,35.64,0,0,0-3.74-1.26c-.22-.05-.37.35-.23.52,2.28,2.78,9.45,6.91,10.49-5.28.26-3,.44-6.6.56-10.85C47.22,55.78,45.15,54.63,44.76,54.49ZM43.15,65.2a2.11,2.11,0,0,1-2,1.28c-3.36-.11-1.35-7.17,1.45-7.85.57-.13.85,0,1,.25C43.5,60.81,43.33,63.12,43.15,65.2Z" transform="translate(0 -0.01)"/><path class="cls-2" d="M28.64,61.83a22.26,22.26,0,0,0-1.94-4.12,5.13,5.13,0,0,0-3.33-2.22A17.08,17.08,0,0,0,14.28,57c-1.09.5-1.08,1-1.08,4.48,0,.51,1.63.13,2.33-.15a5.57,5.57,0,0,1,.67-.2,88.86,88.86,0,0,0-1,13.1c0,.61-.07,1.19.55,1.2A17.47,17.47,0,0,0,19,75.14v0A9.69,9.69,0,0,0,22,73.88C24.85,72.07,29,68.26,28.64,61.83ZM25.72,62a13.59,13.59,0,0,1-6.65,8.64c.13-3.43.37-7.53.55-10.22,2.14-.37,4.53-.61,5.64-.18a4.48,4.48,0,0,1,.56.32C26,60.65,25.9,61.22,25.72,62Z" transform="translate(0 -0.01)"/><path class="cls-2" d="M80.65,24.1A9.36,9.36,0,1,0,90,33.46,9.36,9.36,0,0,0,80.65,24.1ZM77.77,39c0,.82-1.87-.4-1.87-.92,0-3.65.2-6.19.16-6.69-.06-.73,0-.63.3-.69.6-.13,2,1.06,1.87,1.43C78,34.4,77.87,37.23,77.77,39Zm-1.36-9.43c-.92-.84-.51-2.35.17-2.45a1.7,1.7,0,0,1,1.92,1A1.31,1.31,0,0,1,76.41,29.54ZM85.25,38a2,2,0,0,1-1.42-.72,6.49,6.49,0,0,1-.21-2.9c0-.67.07-1.28.12-1.88a14.41,14.41,0,0,0-2,5.54c0,.11-.08.6-.44.67-.17,0-.63-.32-.91-.56h0a1.53,1.53,0,0,1-.64-.83,41.44,41.44,0,0,1,.17-7.39c0-.52.08-.61.31-.68.48-.14,1.71.4,1.65.79-.12.79-.21,1.71-.28,2.66a7.64,7.64,0,0,1,2-3.37.55.55,0,0,1,.55-.09,3.38,3.38,0,0,1,1.58,1.6h0s0,0,0,0c.27.64-.25,5.37-.28,5.83S85.51,38,85.25,38Z" transform="translate(0 -0.01)"/></svg>